<svg xmlns="http://www.w3.org/2000/svg" width="100%" height="100%" viewBox="0 0 32 32" fill="none">
  <path d="M26.6667 5.33301H5.33341C3.86275 5.33301 2.66675 6.52901 2.66675 7.99967V23.9997C2.66675 25.4703 3.86275 26.6663 5.33341 26.6663H26.6667C28.1374 26.6663 29.3334 25.4703 29.3334 23.9997V7.99967C29.3334 6.52901 28.1374 5.33301 26.6667 5.33301ZM26.6667 7.99967V8.68101L16.0001 16.9783L5.33341 8.68234V7.99967H26.6667ZM5.33341 23.9997V12.0583L15.1814 19.7183C15.4149 19.9017 15.7032 20.0014 16.0001 20.0014C16.297 20.0014 16.5853 19.9017 16.8187 19.7183L26.6667 12.0583L26.6694 23.9997H5.33341Z" fill="currentColor"/>
</svg>