<svg xmlns="http://www.w3.org/2000/svg" width="100%" height="100%" viewBox="0 0 32 32" fill="none">
  <path fill-rule="evenodd" clip-rule="evenodd" d="M21.3333 4.32361H10.6667C6.98477 4.32361 4 7.30838 4 10.9903V21.6569C4 25.3388 6.98477 28.3236 10.6667 28.3236H21.3333C25.0152 28.3236 28 25.3388 28 21.6569V10.9903C28 7.30838 25.0152 4.32361 21.3333 4.32361ZM25.6667 21.6569C25.6593 24.0471 23.7235 25.9829 21.3333 25.9903H10.6667C8.27647 25.9829 6.34065 24.0471 6.33333 21.6569V10.9903C6.34065 8.60008 8.27647 6.66426 10.6667 6.65694H21.3333C23.7235 6.66426 25.6593 8.60008 25.6667 10.9903V21.6569ZM22.3333 11.3236C23.0697 11.3236 23.6667 10.7266 23.6667 9.99028C23.6667 9.2539 23.0697 8.65694 22.3333 8.65694C21.5969 8.65694 21 9.2539 21 9.99028C21 10.7266 21.5969 11.3236 22.3333 11.3236ZM16 10.3236C12.6863 10.3236 10 13.0099 10 16.3236C10 19.6373 12.6863 22.3236 16 22.3236C19.3137 22.3236 22 19.6373 22 16.3236C22.0036 14.7312 21.3725 13.203 20.2465 12.077C19.1205 10.9511 17.5924 10.3201 16 10.3236ZM12.3333 16.3236C12.3333 18.3487 13.9749 19.9903 16 19.9903C18.0251 19.9903 19.6667 18.3487 19.6667 16.3236C19.6667 14.2985 18.0251 12.6569 16 12.6569C13.9749 12.6569 12.3333 14.2985 12.3333 16.3236Z" fill="currentColor"/>
</svg>