<svg xmlns="http://www.w3.org/2000/svg" width="100%" height="100%" viewBox="0 0 32 32" fill="none">
  <path fill-rule="evenodd" clip-rule="evenodd" d="M6 4.32361C4.89543 4.32361 4 5.21904 4 6.32361V26.3236C4 27.4281 4.89543 28.3236 6 28.3236H26C27.1045 28.3236 28 27.4281 28 26.3236V6.32361C28 5.21904 27.1045 4.32361 26 4.32361H6ZM11.361 9.66057C11.3685 10.9356 10.4141 11.7212 9.28164 11.7156C8.21476 11.7099 7.28476 10.8606 7.29039 9.66245C7.29601 8.53557 8.18664 7.62994 9.34352 7.6562C10.5173 7.68245 11.3685 8.54308 11.361 9.66057ZM16.3729 13.3393H13.0129H13.0111V24.7524H16.5623V24.4861C16.5623 23.9796 16.5619 23.4729 16.5615 22.9661C16.5604 21.6144 16.5592 20.2612 16.5661 18.9099C16.568 18.5817 16.5829 18.2405 16.6673 17.9273C16.9841 16.7573 18.0361 16.0017 19.2099 16.1875C19.9636 16.3055 20.4623 16.7424 20.6723 17.4531C20.8017 17.8973 20.8599 18.3755 20.8655 18.8387C20.8807 20.2355 20.8785 21.6323 20.8764 23.0292C20.8756 23.5223 20.8748 24.0156 20.8748 24.5087V24.7505H24.4373V24.4768C24.4373 23.8741 24.4371 23.2716 24.4367 22.6691C24.436 21.1631 24.4352 19.6571 24.4392 18.1505C24.4411 17.4699 24.368 16.7987 24.2011 16.1405C23.9517 15.1617 23.4361 14.3517 22.598 13.7668C22.0036 13.3505 21.3511 13.0824 20.6217 13.0524C20.5387 13.049 20.4549 13.0444 20.3708 13.0399C19.9979 13.0197 19.6188 12.9992 19.2623 13.0712C18.2423 13.2755 17.3461 13.7424 16.6692 14.5655C16.5905 14.6599 16.5136 14.7557 16.3988 14.8988L16.3729 14.9312V13.3393ZM7.57552 24.7561H11.1099V13.3467H7.57552V24.7561Z" fill="currentColor"/>
</svg>