<svg width="100%" height="100%" viewBox="0 0 347 46" fill="currentColor" xmlns="http://www.w3.org/2000/svg">
<path d="M82.1436 19.7362H79.0413V29.7751H69.7311V3.27709H79.0413V12.6743H82.1436V19.7362ZM85.2458 3.27709H94.5561V29.7751H85.2458V3.27709Z" fill="currentColor"/>
<path d="M110.892 23.2883H107.789V29.7752H98.4791V15.9914C98.4522 14.3231 98.761 12.6666 99.3869 11.1219C100.013 9.57731 100.943 8.17661 102.12 7.00444C103.262 5.82448 104.627 4.88676 106.133 4.24652C107.64 3.60627 109.258 3.27644 110.893 3.27644C112.528 3.27644 114.147 3.60627 115.653 4.24652C117.16 4.88676 118.524 5.82448 119.666 7.00444C120.844 8.17678 121.773 9.57759 122.398 11.1222C123.023 12.6669 123.332 14.3233 123.304 15.9914V29.7752H113.476V12.8461C113.481 12.4989 113.417 12.1541 113.288 11.8323C113.158 11.5106 112.965 11.2186 112.721 10.9737C112.483 10.7283 112.199 10.5332 111.885 10.4001C111.571 10.267 111.234 10.1984 110.893 10.1984C110.553 10.1984 110.216 10.267 109.902 10.4001C109.588 10.5332 109.304 10.7283 109.066 10.9737C108.821 11.2181 108.628 11.51 108.498 11.8319C108.368 12.1537 108.305 12.4988 108.311 12.8461V16.8014H111.817V23.2707L110.892 23.2883Z" fill="currentColor"/>
<path d="M161.345 5.77017C159.143 3.28411 156.305 2.41101 153.2 2.41101C150.522 2.41101 146.842 4.19578 144.832 6.04367C142.818 4.19578 139.142 2.41101 136.461 2.41101C133.355 2.41101 130.521 3.28411 128.316 5.77017C126.111 8.25622 126.525 12.485 126.525 15.9914V29.7751H136.43V13.1898C136.43 12.3096 136.214 10.0129 138.168 10.0129C140.123 10.0129 139.887 12.3096 139.887 13.1898V29.7751H149.76V13.1898C149.76 12.3096 149.548 10.0129 151.478 10.0129C153.408 10.0129 153.217 12.3096 153.217 13.1898V29.7751H163.122V15.9914C163.122 12.485 163.546 8.25272 161.345 5.77017Z" fill="currentColor"/>
<path d="M201.226 5.77017C199.021 3.28411 196.186 2.41101 193.08 2.41101C190.399 2.41101 186.723 4.19578 184.709 6.04367C182.699 4.19578 179.019 2.41101 176.341 2.41101C173.236 2.41101 170.398 3.28411 168.196 5.77017C165.995 8.25622 166.419 12.485 166.419 15.9914V29.7751H176.324V13.1898C176.324 12.3096 176.108 10.0129 178.063 10.0129C180.018 10.0129 179.781 12.3096 179.781 13.1898V29.7751H189.648V13.1898C189.648 12.3096 189.436 10.0129 191.366 10.0129C193.296 10.0129 193.105 12.3096 193.105 13.1898V29.7751H203.003V15.9914C203.003 12.485 203.427 8.25272 201.226 5.77017Z" fill="currentColor"/>
<path d="M226.158 3.27709V10.6967H216.737V13.4107H226.158V19.3996H216.737V22.1171H226.158V29.7751H214.514C213.431 29.7751 212.358 29.56 211.357 29.142C210.357 28.724 209.447 28.1114 208.681 27.3391C207.915 26.5667 207.307 25.6499 206.893 24.6408C206.478 23.6317 206.265 22.5501 206.265 21.4579V11.5978C206.264 10.5053 206.478 9.42338 206.892 8.41389C207.306 7.40439 207.914 6.48709 208.68 5.71439C209.446 4.94169 210.356 4.32873 211.357 3.91054C212.358 3.49234 213.431 3.27709 214.514 3.27709H226.158Z" fill="currentColor"/>
<path d="M241.99 14.0313H244.608C244.999 13.9917 245.358 13.7975 245.606 13.4913C245.949 13.0471 246.129 12.4979 246.118 11.9355C246.106 11.3732 245.904 10.8319 245.544 10.4021C245.258 10.1842 244.922 10.0441 244.567 9.99539H240.393V29.7751H231.09V3.27709H245.053C248.051 3.27709 251.279 3.57513 253.4 5.75964C254.012 6.3943 255.977 8.42101 255.915 11.4926C255.824 15.8231 251.741 17.983 251.178 18.3757L256.829 29.7751H246.977L241.913 21.5245L241.99 14.0313Z" fill="currentColor"/>
<path d="M332.17 14.0313H334.793C335.182 13.9912 335.54 13.797 335.787 13.4913C336.13 13.0471 336.31 12.4979 336.299 11.9355C336.287 11.3732 336.085 10.8319 335.725 10.4021C335.44 10.1848 335.105 10.0447 334.751 9.99539H330.578V29.7751H321.26V3.27709H335.224C338.225 3.27709 341.453 3.57513 343.571 5.75964C344.183 6.3943 346.148 8.42101 346.085 11.4926C345.998 15.8231 341.912 17.983 341.348 18.3757L347 29.7751H337.147L332.083 21.5245L332.17 14.0313Z" fill="currentColor"/>
<path d="M287.316 11.2542V29.7751H278.006V13.7438C278.006 10.9678 279.1 8.30559 281.047 6.34271C282.994 4.37982 285.634 3.27709 288.388 3.27709H293.371C298.143 3.27709 302.24 7.04299 302.327 11.8538C302.414 16.7628 298.741 20.1781 293.897 20.1781H289.821V13.2669C290.339 13.2669 291.184 13.2248 291.761 13.2213C293.034 13.2213 293.337 12.9969 293.288 11.6013C293.253 10.6827 292.794 9.63774 291.288 9.63774C290.94 9.63774 289.295 9.58865 288.996 9.66228C288.009 9.90773 287.316 10.4933 287.316 11.5663" fill="currentColor"/>
<path d="M315.741 29.7751H306.431V3.27709H315.741V29.7751Z" fill="currentColor"/>
<path d="M258.989 11.8643C258.989 4.85145 266.856 2.80019 269.343 2.81071C271.969 2.81071 274.873 3.82056 274.873 3.82056V10.2198C274.873 10.2198 272.323 10.2408 271.461 10.2408C270.748 10.2399 270.065 10.5241 269.56 11.031C269.055 11.5379 268.771 12.226 268.769 12.9443C268.769 14.4415 269.148 14.0979 271.457 15.6512C271.457 15.6512 274.142 17.2291 274.142 20.3078C274.142 29.5577 265.628 30.5009 262.717 30.0977C261.061 29.8358 259.473 29.2395 258.05 28.3445V21.9558C258.05 21.9558 259.873 21.9347 260.739 21.9347C262.22 21.9347 263.424 21.1739 263.424 19.6801C263.424 18.1864 263.545 17.4641 261.504 16.5243C261.507 16.5173 258.989 14.9044 258.989 11.8643Z" fill="currentColor"/>
<path d="M31.4225 32.9555C13.8001 32.9555 0 25.8269 0 16.7277C0 7.62856 13.8001 0.5 31.4225 0.5C49.0448 0.5 62.8414 7.62856 62.8414 16.7277C62.8414 25.8269 49.0413 32.9555 31.4225 32.9555ZM31.4225 3.43488C15.9669 3.43488 2.90401 9.52202 2.90401 16.7277C2.90401 23.9334 15.9599 30.0206 31.4225 30.0206C46.885 30.0206 59.9409 23.9334 59.9409 16.7277C59.9409 9.52202 46.8816 3.43488 31.4225 3.43488Z" fill="currentColor"/>
<path d="M21.7401 22.0084L30.8243 15.9563C31.8885 15.2457 32.6295 14.1383 32.8845 12.8773C33.1395 11.6163 32.8876 10.3049 32.1841 9.23097C31.8357 8.69903 31.3868 8.24151 30.863 7.88453C30.3392 7.52755 29.7507 7.27812 29.1313 7.15047C28.5118 7.02283 27.8735 7.01948 27.2528 7.14062C26.6321 7.26175 26.0411 7.50499 25.5136 7.85645L16.4329 13.912C16.4329 13.912 21.7401 15.5075 21.7401 22.0084Z" fill="currentColor"/>
<path d="M33.9753 27.4959L46.0539 19.4312C47.1187 18.7212 47.8604 17.614 48.116 16.353C48.3716 15.0919 48.1203 13.7802 47.4172 12.7059C46.713 11.6323 45.6148 10.8845 44.3641 10.6268C43.1133 10.3691 41.8122 10.6225 40.7467 11.3313L28.6646 19.3961C28.6646 19.3961 33.9753 21.0301 33.9753 27.4959Z" fill="currentColor"/>
<path d="M202.945 43.3554C202.366 43.3554 201.867 43.2266 201.447 42.9691C201.03 42.7089 200.708 42.3462 200.482 41.881C200.257 41.4132 200.145 40.8692 200.145 40.2489C200.145 39.6287 200.257 39.082 200.482 38.609C200.708 38.1333 201.024 37.7627 201.428 37.4973C201.835 37.2292 202.309 37.0951 202.851 37.0951C203.164 37.0951 203.473 37.1477 203.778 37.2528C204.083 37.358 204.361 37.5288 204.611 37.7653C204.861 37.9992 205.06 38.3094 205.209 38.6957C205.358 39.082 205.432 39.5577 205.432 40.1228V40.517H200.802V39.7128H204.493C204.493 39.3711 204.426 39.0663 204.29 38.7982C204.157 38.5301 203.967 38.3186 203.719 38.1635C203.474 38.0084 203.185 37.9309 202.851 37.9309C202.484 37.9309 202.166 38.0229 201.897 38.2069C201.631 38.3882 201.427 38.6247 201.283 38.9165C201.14 39.2082 201.068 39.5209 201.068 39.8547V40.3909C201.068 40.8482 201.146 41.2358 201.303 41.5538C201.462 41.8692 201.682 42.1097 201.964 42.2752C202.245 42.4382 202.572 42.5197 202.945 42.5197C203.187 42.5197 203.406 42.4855 203.602 42.4172C203.8 42.3462 203.971 42.2411 204.114 42.1018C204.258 41.9599 204.368 41.7838 204.447 41.5735L205.338 41.8258C205.244 42.1307 205.086 42.3988 204.865 42.63C204.643 42.8587 204.37 43.0374 204.044 43.1662C203.718 43.2923 203.352 43.3554 202.945 43.3554Z" fill="currentColor"/>
<path d="M198.928 38.5301L198.099 38.7667C198.047 38.6274 197.97 38.492 197.869 38.3606C197.77 38.2266 197.634 38.1162 197.462 38.0295C197.29 37.9427 197.07 37.8994 196.801 37.8994C196.434 37.8994 196.127 37.9848 195.882 38.1556C195.64 38.3238 195.519 38.538 195.519 38.7982C195.519 39.0295 195.602 39.2121 195.769 39.3462C195.936 39.4802 196.196 39.5919 196.551 39.6813L197.443 39.902C197.98 40.0334 198.38 40.2345 198.643 40.5052C198.906 40.7733 199.038 41.1189 199.038 41.542C199.038 41.8889 198.939 42.199 198.741 42.4724C198.545 42.7457 198.271 42.9612 197.92 43.1189C197.568 43.2766 197.158 43.3554 196.692 43.3554C196.079 43.3554 195.572 43.2214 195.171 42.9533C194.769 42.6852 194.515 42.2936 194.408 41.7785L195.284 41.5578C195.368 41.8837 195.525 42.1281 195.757 42.291C195.992 42.454 196.298 42.5354 196.676 42.5354C197.106 42.5354 197.448 42.4435 197.701 42.2595C197.956 42.0729 198.084 41.8495 198.084 41.5893C198.084 41.379 198.011 41.203 197.865 41.061C197.719 40.9165 197.495 40.8087 197.192 40.7378L196.191 40.5012C195.641 40.3698 195.237 40.1662 194.979 39.8902C194.724 39.6116 194.596 39.2634 194.596 38.8455C194.596 38.5038 194.691 38.2016 194.881 37.9388C195.074 37.676 195.336 37.4697 195.667 37.3199C196.001 37.1701 196.379 37.0951 196.801 37.0951C197.396 37.0951 197.862 37.2266 198.201 37.4894C198.543 37.7522 198.785 38.0991 198.928 38.5301Z" fill="currentColor"/>
<path d="M190.544 43.3554C190.002 43.3554 189.526 43.2253 189.117 42.9651C188.71 42.7049 188.392 42.341 188.163 41.8731C187.936 41.4053 187.823 40.8587 187.823 40.2332C187.823 39.6024 187.936 39.0518 188.163 38.5814C188.392 38.1109 188.71 37.7456 189.117 37.4854C189.526 37.2252 190.002 37.0951 190.544 37.0951C191.086 37.0951 191.561 37.2252 191.967 37.4854C192.377 37.7456 192.695 38.1109 192.921 38.5814C193.151 39.0518 193.266 39.6024 193.266 40.2332C193.266 40.8587 193.151 41.4053 192.921 41.8731C192.695 42.341 192.377 42.7049 191.967 42.9651C191.561 43.2253 191.086 43.3554 190.544 43.3554ZM190.544 42.5197C190.956 42.5197 191.295 42.4132 191.561 42.2003C191.827 41.9875 192.023 41.7076 192.151 41.3606C192.279 41.0137 192.343 40.6379 192.343 40.2332C192.343 39.8284 192.279 39.4513 192.151 39.1017C192.023 38.7522 191.827 38.4697 191.561 38.2542C191.295 38.0387 190.956 37.9309 190.544 37.9309C190.132 37.9309 189.793 38.0387 189.527 38.2542C189.262 38.4697 189.065 38.7522 188.937 39.1017C188.809 39.4513 188.745 39.8284 188.745 40.2332C188.745 40.6379 188.809 41.0137 188.937 41.3606C189.065 41.7076 189.262 41.9875 189.527 42.2003C189.793 42.4132 190.132 42.5197 190.544 42.5197Z" fill="currentColor"/>
<path d="M182.521 39.5866V43.2293H181.599V35.1556H182.521V38.1201H182.6C182.74 37.8074 182.952 37.559 183.233 37.375C183.517 37.1884 183.895 37.0951 184.367 37.0951C184.776 37.0951 185.135 37.1779 185.442 37.3435C185.75 37.5065 185.988 37.7574 186.158 38.0965C186.33 38.4329 186.416 38.8613 186.416 39.3816V43.2293H185.493V39.4447C185.493 38.9638 185.369 38.5919 185.122 38.3291C184.877 38.0636 184.537 37.9309 184.101 37.9309C183.799 37.9309 183.528 37.9953 183.288 38.1241C183.051 38.2529 182.863 38.4408 182.725 38.6878C182.589 38.9349 182.521 39.2345 182.521 39.5866Z" fill="currentColor"/>
<path d="M176.812 35.1556V43.2293H175.889V35.1556H176.812Z" fill="currentColor"/>
<path d="M171.452 43.3712C171.071 43.3712 170.726 43.2989 170.416 43.1544C170.106 43.0072 169.859 42.7956 169.677 42.5197C169.494 42.2411 169.403 41.9047 169.403 41.5105C169.403 41.1635 169.471 40.8823 169.606 40.6668C169.742 40.4487 169.923 40.2779 170.15 40.1543C170.377 40.0308 170.627 39.9388 170.901 39.8784C171.177 39.8153 171.455 39.7654 171.733 39.7286C172.098 39.6813 172.394 39.6458 172.621 39.6221C172.85 39.5958 173.017 39.5525 173.122 39.492C173.228 39.4316 173.282 39.3265 173.282 39.1767V39.1451C173.282 38.7561 173.176 38.4539 172.965 38.2384C172.757 38.0229 172.44 37.9151 172.015 37.9151C171.574 37.9151 171.229 38.0124 170.979 38.2069C170.729 38.4013 170.553 38.609 170.451 38.8297L169.575 38.5144C169.732 38.1464 169.94 37.8599 170.201 37.6549C170.464 37.4473 170.751 37.3028 171.061 37.2213C171.374 37.1372 171.681 37.0951 171.984 37.0951C172.177 37.0951 172.398 37.1188 172.648 37.1661C172.901 37.2108 173.145 37.3041 173.38 37.446C173.617 37.5879 173.814 37.8021 173.97 38.0886C174.126 38.3751 174.205 38.7588 174.205 39.2397V43.2293H173.282V42.4093H173.235C173.172 42.5407 173.068 42.6813 172.922 42.8311C172.776 42.9809 172.582 43.1084 172.34 43.2135C172.097 43.3186 171.801 43.3712 171.452 43.3712ZM171.593 42.5354C171.958 42.5354 172.265 42.4632 172.515 42.3186C172.768 42.1741 172.959 41.9875 173.086 41.7588C173.217 41.5302 173.282 41.2897 173.282 41.0374V40.1859C173.243 40.2332 173.157 40.2765 173.024 40.316C172.893 40.3528 172.742 40.3856 172.57 40.4145C172.401 40.4408 172.235 40.4644 172.074 40.4855C171.915 40.5039 171.786 40.5196 171.687 40.5328C171.447 40.5643 171.223 40.6156 171.014 40.6865C170.808 40.7549 170.641 40.8587 170.514 40.998C170.388 41.1346 170.326 41.3212 170.326 41.5578C170.326 41.881 170.444 42.1254 170.682 42.291C170.921 42.454 171.225 42.5354 171.593 42.5354Z" fill="currentColor"/>
<path d="M167.072 43.2293V37.174H167.994V43.2293H167.072ZM167.541 36.1648C167.361 36.1648 167.206 36.103 167.076 35.9795C166.948 35.856 166.884 35.7075 166.884 35.534C166.884 35.3606 166.948 35.2121 167.076 35.0886C167.206 34.965 167.361 34.9033 167.541 34.9033C167.721 34.9033 167.875 34.965 168.002 35.0886C168.133 35.2121 168.198 35.3606 168.198 35.534C168.198 35.7075 168.133 35.856 168.002 35.9795C167.875 36.103 167.721 36.1648 167.541 36.1648Z" fill="currentColor"/>
<path d="M162.975 43.2293V37.174H163.866V38.0886H163.929C164.038 37.789 164.236 37.5459 164.523 37.3593C164.81 37.1727 165.133 37.0794 165.493 37.0794C165.561 37.0794 165.645 37.0807 165.747 37.0833C165.849 37.086 165.926 37.0899 165.978 37.0951V38.0413C165.947 38.0334 165.875 38.0216 165.763 38.0058C165.653 37.9874 165.537 37.9782 165.415 37.9782C165.123 37.9782 164.862 38.04 164.633 38.1635C164.406 38.2844 164.226 38.4526 164.093 38.6681C163.963 38.881 163.898 39.1241 163.898 39.3974V43.2293H162.975Z" fill="currentColor"/>
<path d="M161.587 37.174V37.9624H158.474V37.174H161.587ZM159.381 35.7233H160.304V41.4947C160.304 41.7575 160.342 41.9546 160.418 42.086C160.496 42.2148 160.595 42.3015 160.715 42.3462C160.837 42.3883 160.966 42.4093 161.102 42.4093C161.203 42.4093 161.287 42.404 161.352 42.3935C161.417 42.3804 161.469 42.3699 161.508 42.362L161.696 43.1977C161.634 43.2214 161.546 43.245 161.434 43.2687C161.322 43.295 161.18 43.3081 161.008 43.3081C160.747 43.3081 160.492 43.2516 160.242 43.1386C159.994 43.0256 159.788 42.8534 159.624 42.6222C159.462 42.3909 159.381 42.0992 159.381 41.747V35.7233Z" fill="currentColor"/>
<path d="M157.476 38.5301L156.647 38.7667C156.595 38.6274 156.518 38.492 156.417 38.3606C156.317 38.2266 156.182 38.1162 156.01 38.0295C155.838 37.9427 155.618 37.8994 155.349 37.8994C154.982 37.8994 154.675 37.9848 154.43 38.1556C154.188 38.3238 154.067 38.538 154.067 38.7982C154.067 39.0295 154.15 39.2121 154.317 39.3462C154.484 39.4802 154.744 39.5919 155.099 39.6813L155.99 39.902C156.527 40.0334 156.927 40.2345 157.191 40.5052C157.454 40.7733 157.586 41.1189 157.586 41.542C157.586 41.8889 157.487 42.199 157.288 42.4724C157.093 42.7457 156.819 42.9612 156.467 43.1189C156.115 43.2766 155.706 43.3554 155.24 43.3554C154.627 43.3554 154.12 43.2214 153.719 42.9533C153.317 42.6852 153.063 42.2936 152.956 41.7785L153.832 41.5578C153.915 41.8837 154.073 42.1281 154.305 42.291C154.54 42.454 154.846 42.5354 155.224 42.5354C155.654 42.5354 155.996 42.4435 156.248 42.2595C156.504 42.0729 156.632 41.8495 156.632 41.5893C156.632 41.379 156.559 41.203 156.413 41.061C156.267 40.9165 156.042 40.8087 155.74 40.7378L154.739 40.5012C154.189 40.3698 153.785 40.1662 153.527 39.8902C153.271 39.6116 153.144 39.2634 153.144 38.8455C153.144 38.5038 153.239 38.2016 153.429 37.9388C153.622 37.676 153.884 37.4697 154.215 37.3199C154.549 37.1701 154.927 37.0951 155.349 37.0951C155.943 37.0951 156.41 37.2266 156.749 37.4894C157.09 37.7522 157.333 38.0991 157.476 38.5301Z" fill="currentColor"/>
<path d="M150.609 40.7535V37.174H151.532V43.2293H150.609V42.2043H150.546C150.406 42.5118 150.187 42.7733 149.89 42.9888C149.592 43.2017 149.217 43.3081 148.763 43.3081C148.388 43.3081 148.054 43.2253 147.762 43.0598C147.471 42.8916 147.241 42.6392 147.074 42.3028C146.907 41.9638 146.824 41.5367 146.824 41.0216V37.174H147.747V40.9585C147.747 41.4001 147.869 41.7522 148.114 42.0151C148.362 42.2779 148.677 42.4093 149.061 42.4093C149.29 42.4093 149.523 42.3502 149.761 42.2319C150 42.1136 150.201 41.9323 150.363 41.6879C150.527 41.4434 150.609 41.132 150.609 40.7535Z" fill="currentColor"/>
<path d="M142.253 43.3554C141.753 43.3554 141.311 43.228 140.928 42.973C140.544 42.7155 140.245 42.3528 140.028 41.885C139.812 41.4145 139.704 40.8587 139.704 40.2174C139.704 39.5814 139.812 39.0295 140.028 38.5617C140.245 38.0938 140.546 37.7325 140.931 37.4775C141.317 37.2226 141.763 37.0951 142.269 37.0951C142.66 37.0951 142.969 37.1609 143.195 37.2923C143.425 37.421 143.599 37.5682 143.719 37.7338C143.842 37.8967 143.937 38.0308 144.005 38.1359H144.083V35.1556H145.006V43.2293H144.114V42.2989H144.005C143.937 42.4093 143.841 42.5486 143.715 42.7168C143.59 42.8824 143.412 43.0308 143.18 43.1623C142.948 43.291 142.639 43.3554 142.253 43.3554ZM142.378 42.5197C142.748 42.5197 143.061 42.4224 143.317 42.2279C143.572 42.0308 143.766 41.7588 143.899 41.4119C144.032 41.0624 144.099 40.6589 144.099 40.2016C144.099 39.7496 144.034 39.354 143.903 39.015C143.773 38.6734 143.58 38.4079 143.324 38.2187C143.069 38.0268 142.754 37.9309 142.378 37.9309C141.987 37.9309 141.661 38.0321 141.401 38.2345C141.143 38.4342 140.948 38.7062 140.818 39.0505C140.69 39.3922 140.626 39.7759 140.626 40.2016C140.626 40.6326 140.692 41.0242 140.822 41.3764C140.955 41.726 141.15 42.0045 141.409 42.2122C141.669 42.4172 141.992 42.5197 142.378 42.5197Z" fill="currentColor"/>
<path d="M134.467 39.5866V43.2293H133.544V37.174H134.436V38.1201H134.514C134.655 37.8126 134.869 37.5656 135.155 37.379C135.442 37.1898 135.812 37.0951 136.266 37.0951C136.672 37.0951 137.028 37.1793 137.333 37.3475C137.638 37.513 137.875 37.7653 138.045 38.1044C138.214 38.4408 138.299 38.8665 138.299 39.3816V43.2293H137.376V39.4447C137.376 38.969 137.254 38.5985 137.009 38.333C136.764 38.0649 136.427 37.9309 136 37.9309C135.705 37.9309 135.442 37.9953 135.21 38.1241C134.981 38.2529 134.799 38.4408 134.666 38.6878C134.534 38.9349 134.467 39.2345 134.467 39.5866Z" fill="currentColor"/>
<path d="M130.931 43.2293V37.174H131.854V43.2293H130.931ZM131.401 36.1648C131.221 36.1648 131.066 36.103 130.935 35.9795C130.808 35.856 130.744 35.7075 130.744 35.534C130.744 35.3606 130.808 35.2121 130.935 35.0886C131.066 34.965 131.221 34.9033 131.401 34.9033C131.58 34.9033 131.734 34.965 131.862 35.0886C131.992 35.2121 132.057 35.3606 132.057 35.534C132.057 35.7075 131.992 35.856 131.862 35.9795C131.734 36.103 131.58 36.1648 131.401 36.1648Z" fill="currentColor"/>
<path d="M123.059 43.3397C122.533 43.3397 122.079 43.2424 121.699 43.0479C121.318 42.8534 121.025 42.5867 120.819 42.2477C120.613 41.9086 120.51 41.521 120.51 41.0847C120.51 40.7483 120.58 40.45 120.721 40.1898C120.864 39.927 121.061 39.6839 121.311 39.4605C121.564 39.2345 121.855 39.0084 122.183 38.7824L123.341 37.9151C123.568 37.7653 123.749 37.605 123.884 37.4342C124.022 37.2634 124.092 37.04 124.092 36.764C124.092 36.559 124.002 36.3606 123.822 36.1687C123.645 35.9769 123.411 35.8809 123.122 35.8809C122.919 35.8809 122.739 35.9335 122.582 36.0386C122.428 36.1411 122.307 36.2725 122.219 36.4329C122.133 36.5905 122.09 36.7535 122.09 36.9217C122.09 37.1109 122.14 37.3028 122.242 37.4973C122.346 37.6891 122.478 37.8862 122.637 38.0886C122.799 38.2883 122.965 38.4933 123.137 38.7036L126.813 43.2293H125.703L122.668 39.5393C122.387 39.1977 122.131 38.8876 121.902 38.609C121.673 38.3304 121.49 38.0557 121.354 37.785C121.219 37.5143 121.151 37.2213 121.151 36.9059C121.151 36.5432 121.231 36.2252 121.39 35.9519C121.551 35.6759 121.777 35.4618 122.066 35.3093C122.358 35.1543 122.7 35.0767 123.091 35.0767C123.492 35.0767 123.837 35.1556 124.127 35.3133C124.416 35.4683 124.639 35.6746 124.795 35.9322C124.952 36.1871 125.03 36.4644 125.03 36.764C125.03 37.1503 124.935 37.4854 124.745 37.7693C124.554 38.0531 124.295 38.3172 123.966 38.5617L122.371 39.7601C122.011 40.0282 121.768 40.2884 121.64 40.5407C121.512 40.793 121.448 40.9743 121.448 41.0847C121.448 41.337 121.513 41.5722 121.644 41.7904C121.774 42.0085 121.958 42.1846 122.195 42.3186C122.432 42.4526 122.71 42.5197 123.028 42.5197C123.33 42.5197 123.625 42.4553 123.912 42.3265C124.198 42.1951 124.458 42.0059 124.69 41.7588C124.924 41.5118 125.11 41.2148 125.245 40.8679C125.383 40.521 125.452 40.1307 125.452 39.697H126.344C126.344 40.2332 126.283 40.6708 126.16 41.0098C126.038 41.3488 125.899 41.6143 125.746 41.8061C125.592 41.998 125.468 42.1412 125.374 42.2358C125.343 42.2752 125.314 42.3147 125.288 42.3541C125.262 42.3935 125.233 42.4329 125.202 42.4724C124.944 42.7641 124.618 42.9822 124.225 43.1268C123.831 43.2687 123.442 43.3397 123.059 43.3397Z" fill="currentColor"/>
<path d="M113.984 43.3554C113.421 43.3554 112.936 43.2214 112.529 42.9533C112.123 42.6852 111.81 42.316 111.591 41.8455C111.372 41.3751 111.262 40.8376 111.262 40.2332C111.262 39.6182 111.375 39.0755 111.599 38.605C111.826 38.132 112.141 37.7627 112.545 37.4973C112.952 37.2292 113.426 37.0951 113.968 37.0951C114.391 37.0951 114.771 37.174 115.11 37.3317C115.449 37.4894 115.727 37.7101 115.943 37.994C116.159 38.2778 116.293 38.609 116.346 38.9874H115.423C115.352 38.7115 115.196 38.467 114.954 38.2542C114.714 38.0387 114.391 37.9309 113.984 37.9309C113.624 37.9309 113.309 38.0255 113.038 38.2147C112.769 38.4013 112.559 38.6655 112.408 39.0071C112.26 39.3462 112.185 39.7443 112.185 40.2016C112.185 40.6694 112.258 41.0768 112.404 41.4237C112.553 41.7706 112.761 42.04 113.03 42.2319C113.301 42.4237 113.619 42.5197 113.984 42.5197C114.224 42.5197 114.441 42.4776 114.637 42.3935C114.832 42.3094 114.998 42.1885 115.133 42.0308C115.269 41.8731 115.365 41.6839 115.423 41.4631H116.346C116.293 41.8206 116.164 42.1425 115.959 42.429C115.755 42.7128 115.485 42.9389 115.149 43.1071C114.815 43.2726 114.427 43.3554 113.984 43.3554Z" fill="currentColor"/>
<path d="M108.931 43.2293V37.174H109.854V43.2293H108.931ZM109.4 36.1648C109.22 36.1648 109.065 36.103 108.935 35.9795C108.807 35.856 108.743 35.7075 108.743 35.534C108.743 35.3606 108.807 35.2121 108.935 35.0886C109.065 34.965 109.22 34.9033 109.4 34.9033C109.58 34.9033 109.734 34.965 109.862 35.0886C109.992 35.2121 110.057 35.3606 110.057 35.534C110.057 35.7075 109.992 35.856 109.862 35.9795C109.734 36.103 109.58 36.1648 109.4 36.1648Z" fill="currentColor"/>
<path d="M107.241 35.1556V43.2293H106.318V35.1556H107.241Z" fill="currentColor"/>
<path d="M103.705 40.7535V37.174H104.628V43.2293H103.705V42.2043H103.643C103.502 42.5118 103.283 42.7733 102.986 42.9888C102.689 43.2017 102.313 43.3081 101.86 43.3081C101.484 43.3081 101.151 43.2253 100.859 43.0598C100.567 42.8916 100.337 42.6392 100.17 42.3028C100.004 41.9638 99.9202 41.5367 99.9202 41.0216V37.174H100.843V40.9585C100.843 41.4001 100.965 41.7522 101.211 42.0151C101.458 42.2779 101.774 42.4093 102.157 42.4093C102.386 42.4093 102.619 42.3502 102.857 42.2319C103.096 42.1136 103.297 41.9323 103.459 41.6879C103.623 41.4434 103.705 41.132 103.705 40.7535Z" fill="currentColor"/>
<path d="M95.4832 43.3712C95.1026 43.3712 94.7572 43.2989 94.447 43.1544C94.1368 43.0072 93.8904 42.7956 93.708 42.5197C93.5255 42.2411 93.4343 41.9047 93.4343 41.5105C93.4343 41.1635 93.502 40.8823 93.6376 40.6668C93.7731 40.4487 93.9543 40.2779 94.1811 40.1543C94.4079 40.0308 94.6581 39.9388 94.9318 39.8784C95.2081 39.8153 95.4858 39.7654 95.7647 39.7286C96.1296 39.6813 96.4255 39.6458 96.6523 39.6221C96.8817 39.5958 97.0485 39.5525 97.1528 39.492C97.2597 39.4316 97.3131 39.3265 97.3131 39.1767V39.1451C97.3131 38.7561 97.2075 38.4539 96.9964 38.2384C96.7878 38.0229 96.4711 37.9151 96.0462 37.9151C95.6057 37.9151 95.2603 38.0124 95.01 38.2069C94.7598 38.4013 94.5838 38.609 94.4822 38.8297L93.6063 38.5144C93.7627 38.1464 93.9713 37.8599 94.2319 37.6549C94.4952 37.4473 94.7819 37.3028 95.0921 37.2213C95.405 37.1372 95.7126 37.0951 96.0149 37.0951C96.2078 37.0951 96.4294 37.1188 96.6796 37.1661C96.9325 37.2108 97.1762 37.3041 97.4108 37.446C97.6481 37.5879 97.8449 37.8021 98.0013 38.0886C98.1577 38.3751 98.2359 38.7588 98.2359 39.2397V43.2293H97.3131V42.4093H97.2662C97.2036 42.5407 97.0993 42.6813 96.9534 42.8311C96.8074 42.9809 96.6132 43.1084 96.3708 43.2135C96.1283 43.3186 95.8325 43.3712 95.4832 43.3712ZM95.6239 42.5354C95.9889 42.5354 96.2965 42.4632 96.5467 42.3186C96.7996 42.1741 96.9899 41.9875 97.1176 41.7588C97.2479 41.5302 97.3131 41.2897 97.3131 41.0374V40.1859C97.274 40.2332 97.188 40.2765 97.055 40.316C96.9247 40.3528 96.7735 40.3856 96.6015 40.4145C96.432 40.4408 96.2665 40.4644 96.1049 40.4855C95.9459 40.5039 95.8168 40.5196 95.7178 40.5328C95.4779 40.5643 95.2538 40.6156 95.0452 40.6865C94.8393 40.7549 94.6725 40.8587 94.5447 40.998C94.4196 41.1346 94.357 41.3212 94.357 41.5578C94.357 41.881 94.4757 42.1254 94.7129 42.291C94.9527 42.454 95.2564 42.5354 95.6239 42.5354Z" fill="currentColor"/>
<path d="M89.6189 43.2293V37.174H90.5105V38.0886H90.573C90.6825 37.789 90.8806 37.5459 91.1674 37.3593C91.4541 37.1727 91.7773 37.0794 92.1371 37.0794C92.2048 37.0794 92.2896 37.0807 92.3912 37.0833C92.4929 37.086 92.5698 37.0899 92.6219 37.0951V38.0413C92.5906 38.0334 92.519 38.0216 92.4069 38.0058C92.2974 37.9874 92.1814 37.9782 92.0589 37.9782C91.7669 37.9782 91.5062 38.04 91.2768 38.1635C91.0501 38.2844 90.8702 38.4526 90.7372 38.6681C90.6069 38.881 90.5417 39.1241 90.5417 39.3974V43.2293H89.6189Z" fill="currentColor"/>
<path d="M85.048 43.3554C84.5475 43.3554 84.1057 43.228 83.7225 42.973C83.3393 42.7155 83.0395 42.3528 82.8232 41.885C82.6068 41.4145 82.4986 40.8587 82.4986 40.2174C82.4986 39.5814 82.6068 39.0295 82.8232 38.5617C83.0395 38.0938 83.3406 37.7325 83.7264 37.4775C84.1122 37.2226 84.558 37.0951 85.0637 37.0951C85.4547 37.0951 85.7636 37.1609 85.9904 37.2923C86.2197 37.421 86.3944 37.5682 86.5143 37.7338C86.6368 37.8967 86.732 38.0308 86.7998 38.1359H86.878V35.1556H87.8008V43.2293H86.9092V42.2989H86.7998C86.732 42.4093 86.6355 42.5486 86.5104 42.7168C86.3853 42.8824 86.2067 43.0308 85.9747 43.1623C85.7427 43.291 85.4338 43.3554 85.048 43.3554ZM85.1731 42.5197C85.5433 42.5197 85.8561 42.4224 86.1116 42.2279C86.367 42.0308 86.5612 41.7588 86.6942 41.4119C86.8271 41.0624 86.8936 40.6589 86.8936 40.2016C86.8936 39.7496 86.8284 39.354 86.6981 39.015C86.5678 38.6734 86.3748 38.4079 86.1194 38.2187C85.8639 38.0268 85.5485 37.9309 85.1731 37.9309C84.7821 37.9309 84.4563 38.0321 84.1956 38.2345C83.9375 38.4342 83.7433 38.7062 83.613 39.0505C83.4853 39.3922 83.4214 39.7759 83.4214 40.2016C83.4214 40.6326 83.4866 41.0242 83.6169 41.3764C83.7499 41.726 83.9454 42.0045 84.2034 42.2122C84.4641 42.4172 84.7874 42.5197 85.1731 42.5197Z" fill="currentColor"/>
<path d="M77.4604 45.5C77.304 45.5 77.1646 45.4869 77.042 45.4606C76.9195 45.4369 76.8348 45.4133 76.7879 45.3896L77.0225 44.5696C77.2467 44.6275 77.4448 44.6485 77.6168 44.6327C77.7889 44.6169 77.9414 44.5394 78.0743 44.4001C78.2099 44.2635 78.3337 44.0414 78.4458 43.7339L78.6178 43.2608L76.3969 37.174H77.3979L79.0558 41.9993H79.1183L80.7762 37.174H81.7772L79.2278 44.1123C79.1131 44.4251 78.971 44.684 78.8016 44.8889C78.6322 45.0966 78.4354 45.2503 78.2112 45.3502C77.9896 45.4501 77.7393 45.5 77.4604 45.5Z" fill="currentColor"/>
<path d="M71.4985 39.5866V43.2293H70.5757V35.1556H71.4985V38.1201H71.5767C71.7174 37.8074 71.9286 37.559 72.2101 37.375C72.4942 37.1884 72.8722 37.0951 73.344 37.0951C73.7533 37.0951 74.1117 37.1779 74.4193 37.3435C74.7269 37.5065 74.9654 37.7574 75.1349 38.0965C75.3069 38.4329 75.393 38.8613 75.393 39.3816V43.2293H74.4702V39.4447C74.4702 38.9638 74.3463 38.5919 74.0987 38.3291C73.8537 38.0636 73.5135 37.9309 73.0782 37.9309C72.7758 37.9309 72.5047 37.9953 72.2649 38.1241C72.0276 38.2529 71.84 38.4408 71.7018 38.6878C71.5662 38.9349 71.4985 39.2345 71.4985 39.5866Z" fill="currentColor"/>
</svg>
