<svg xmlns="http://www.w3.org/2000/svg" width="100%" height="100%" viewBox="0 0 32 32" fill="none">
  <path d="M16 18.667C18.9413 18.667 21.3333 16.275 21.3333 13.3337C21.3333 10.3923 18.9413 8.00033 16 8.00033C13.0587 8.00033 10.6667 10.3923 10.6667 13.3337C10.6667 16.275 13.0587 18.667 16 18.667ZM16 10.667C17.4707 10.667 18.6667 11.863 18.6667 13.3337C18.6667 14.8043 17.4707 16.0003 16 16.0003C14.5293 16.0003 13.3333 14.8043 13.3333 13.3337C13.3333 11.863 14.5293 10.667 16 10.667Z" fill="black"/>
  <path d="M15.2267 29.0857C15.4524 29.2468 15.7227 29.3334 16 29.3334C16.2773 29.3334 16.5477 29.2468 16.7734 29.0857C17.1787 28.799 26.7054 21.9203 26.6667 13.3337C26.6667 7.45233 21.8814 2.66699 16 2.66699C10.1187 2.66699 5.33337 7.45233 5.33337 13.327C5.2947 21.9203 14.8214 28.799 15.2267 29.0857ZM16 5.33366C20.412 5.33366 24 8.92166 24 13.3403C24.028 19.2577 18.1494 24.571 16 26.3137C13.852 24.5697 7.97204 19.255 8.00004 13.3337C8.00004 8.92166 11.588 5.33366 16 5.33366Z" fill="currentColor"/>
</svg>