<svg xmlns="http://www.w3.org/2000/svg" width="100%" height="100%" viewBox="0 0 32 32" fill="none">
  <path d="M23.6095 16.3903C23.4857 16.2664 23.3388 16.168 23.177 16.101C23.0153 16.0339 22.8419 15.9993 22.6668 15.9993C22.4917 15.9993 22.3183 16.0339 22.1565 16.101C21.9948 16.168 21.8478 16.2664 21.7241 16.3903L19.5988 18.5156C18.6135 18.2223 16.7748 17.5556 15.6095 16.3903C14.4441 15.2249 13.7775 13.3863 13.4841 12.4009L15.6095 10.2756C15.7334 10.1519 15.8317 10.005 15.8988 9.84321C15.9659 9.68145 16.0004 9.50806 16.0004 9.33295C16.0004 9.15784 15.9659 8.98445 15.8988 8.82269C15.8317 8.66094 15.7334 8.514 15.6095 8.39028L10.2761 3.05695C10.1524 2.93302 10.0055 2.83471 9.84371 2.76762C9.68196 2.70054 9.50856 2.66602 9.33345 2.66602C9.15834 2.66602 8.98495 2.70054 8.82319 2.76762C8.66144 2.83471 8.5145 2.93302 8.39079 3.05695L4.77479 6.67295C4.26812 7.17962 3.98279 7.87562 3.99345 8.58628C4.02412 10.485 4.52679 17.0796 9.72412 22.2769C14.9215 27.4743 21.5161 27.9756 23.4161 28.0076H23.4535C24.1575 28.0076 24.8228 27.7303 25.3268 27.2263L28.9428 23.6103C29.0667 23.4866 29.165 23.3396 29.2321 23.1779C29.2992 23.0161 29.3337 22.8427 29.3337 22.6676C29.3337 22.4925 29.2992 22.3191 29.2321 22.1574C29.165 21.9956 29.0667 21.8487 28.9428 21.725L23.6095 16.3903ZM23.4401 25.3396C21.7761 25.3116 16.0828 24.865 11.6095 20.3903C7.12145 15.9023 6.68679 10.189 6.66012 8.55828L9.33345 5.88495L12.7815 9.33295L11.0575 11.057C10.9007 11.2136 10.7855 11.4067 10.7222 11.619C10.6589 11.8313 10.6495 12.0561 10.6948 12.273C10.7268 12.4263 11.5095 16.0623 13.7228 18.2756C15.9361 20.4889 19.5721 21.2716 19.7255 21.3036C19.9422 21.3502 20.1672 21.3416 20.3796 21.2784C20.5921 21.2153 20.7853 21.0997 20.9415 20.9423L22.6668 19.2183L26.1148 22.6663L23.4401 25.3396Z" fill="currentColor"/>
</svg>